<?xml version="1.0" encoding="UTF-8"?>
<svg
   id="deco-frame"
   viewBox="0 0 1578 1052"
   width="1578"
   height="1052"
   xmlns="http://www.w3.org/2000/svg">
  <defs>
    <style>
      .cls-2, .cls-3, .cls-4, .cls-5, .cls-6 {
        fill: none;
        stroke-miterlimit: 10;
      }
      .cls-2, .cls-5 {
        opacity: .7;
        stroke: #f15a29;
      }
      .cls-2, .cls-6 {
        stroke-width: 3.98px;
      }
      .cls-3, .cls-4, .cls-6 {
        stroke: #231f20;
      }
      .cls-4, .cls-5 {
        stroke-width: 4.01px;
      }
      .cls-7 {
        fill: #231f20;
      }
    </style>
  </defs>
  <g
     id="g12"
     transform="translate(-5341.8584,-4972.3272)">
    <g
       id="g11">
      <path
         class="cls-7"
         d="m 5376.45,5772.3 -4.35,-0.04 -1.35,157.44 h 36.5 v 29.86 h -35.14 v 39.49 h 39.49 v -35.14 h 28.67 v 35.14 h 157.08 v -4.35 h -152.73 v -30.79 h 116.35 l 12.64,-0.22 -11.81,-3.96 -2.94,-1.22 c -21.91,-9.09 -44.56,-18.49 -62.75,-32.7 l -0.59,-0.46 h -50.91 v -51.8 l -0.38,-0.56 c -12.8,-18.69 -24.73,-44.16 -32.74,-69.86 l -4.43,-16.09 0.18,16.74 v 121.58 h -32.11 l 1.31,-153.05 z m 30.79,222.41 h -30.79 v -30.79 h 30.79 z m 4.35,-35.15 v -29.86 h 28.67 v 29.86 z m 82.43,-29.86 c 16.55,12.77 36.38,21.63 56.04,29.86 h -105.45 v -29.86 z m -82.43,-112.67 c 7.74,21.43 17.89,41.98 28.67,57.86 v 50.46 h -28.67 z"
         id="path1" />
      <line
         class="cls-6"
         x1="6655.8101"
         y1="5996.9102"
         x2="5611.1699"
         y2="5996.9102"
         id="line1" />
      <line
         class="cls-6"
         x1="6888.75"
         y1="5234.2598"
         x2="6888.75"
         y2="5763.73"
         id="line2" />
      <line
         class="cls-6"
         x1="5604.7002"
         y1="4999.6001"
         x2="6656.2798"
         y2="4999.6001"
         id="line3" />
      <polyline
         class="cls-6"
         points="5374.04 5763.73 5374.04 5757.94 5374.04 5232.96"
         id="polyline3" />
      <line
         class="cls-2"
         x1="5611.1699"
         y1="5996.9102"
         x2="5605.8701"
         y2="5996.9102"
         id="line4" />
      <line
         class="cls-5"
         x1="5582.73"
         y1="5961.6299"
         x2="5580.5098"
         y2="5961.6299"
         id="line5" />
      <line
         class="cls-4"
         x1="6679.71"
         y1="5961.6299"
         x2="5582.73"
         y2="5961.6299"
         id="line6" />
      <line
         class="cls-4"
         x1="6853.1401"
         y1="5219.3799"
         x2="6853.1401"
         y2="5778.8198"
         id="line7" />
      <line
         class="cls-4"
         x1="5580.7798"
         y1="5034.9302"
         x2="6681.1699"
         y2="5034.9302"
         id="line8" />
      <line
         class="cls-4"
         x1="5409.3398"
         y1="5778.6099"
         x2="5409.3398"
         y2="5218.5898"
         id="line9" />
      <path
         class="cls-7"
         d="m 6887.8,5925.35 h -32.11 v -121.58 l 0.18,-16.74 -4.43,16.09 c -8.01,25.71 -19.94,51.17 -32.74,69.86 l -0.38,0.56 v 51.8 h -50.91 l -0.59,0.46 c -18.19,14.21 -40.84,23.61 -62.75,32.7 l -2.94,1.22 -11.81,3.96 12.64,0.22 h 116.35 v 30.79 h -152.73 v 4.35 h 157.08 v -35.14 h 28.67 v 35.14 h 39.49 v -39.49 h -35.14 v -29.86 h 36.5 l -1.35,-157.44 -4.35,0.04 1.31,153.05 z m -32.11,38.56 h 30.79 v 30.79 h -30.79 z m -33.02,-4.35 v -29.86 h 28.67 v 29.86 z m -4.35,-29.86 v 29.86 h -105.45 c 19.66,-8.23 39.5,-17.09 56.04,-29.86 z m 33.02,-4.35 h -28.67 v -50.46 c 10.79,-15.88 20.93,-36.43 28.67,-57.86 z"
         id="path9" />
      <path
         class="cls-7"
         d="m 6886.49,5224.39 4.35,0.04 1.35,-157.44 h -36.5 v -29.86 h 35.14 c 0,0 0,-39.49 0,-39.49 h -39.49 c 0,0 0,35.14 0,35.14 h -28.67 v -35.14 c 0,0 -157.08,0 -157.08,0 v 4.35 c 0,0 152.73,0 152.73,0 v 30.79 h -116.35 c 0,0 -12.64,0.22 -12.64,0.22 l 11.81,3.96 2.94,1.22 c 21.91,9.09 44.56,18.49 62.75,32.7 l 0.59,0.46 h 50.91 v 51.8 c 0,0 0.38,0.56 0.38,0.56 12.8,18.69 24.73,44.16 32.74,69.86 l 4.43,16.09 -0.18,-16.74 v -121.58 h 32.11 c 0,0 -1.31,153.05 -1.31,153.05 z m -30.8,-222.41 h 30.79 v 30.79 h -30.79 z m -4.35,35.14 v 29.86 h -28.67 v -29.86 z m -82.43,29.86 c -16.55,-12.77 -36.38,-21.63 -56.04,-29.86 h 105.45 v 29.86 z m 82.43,112.68 c -7.74,-21.43 -17.89,-41.98 -28.67,-57.86 v -50.46 h 28.67 z"
         id="path10" />
      <path
         class="cls-7"
         d="m 5373.96,5071.34 h 32.11 v 121.58 c 0,0 -0.18,16.74 -0.18,16.74 l 4.43,-16.09 c 8.01,-25.71 19.94,-51.17 32.74,-69.86 l 0.38,-0.56 v -51.8 h 50.91 c 0,0 0.59,-0.46 0.59,-0.46 18.19,-14.21 40.84,-23.61 62.75,-32.7 l 2.94,-1.22 11.81,-3.96 -12.64,-0.22 H 5443.45 V 5002 h 152.73 c 0,0 0,-4.35 0,-4.35 H 5439.1 c 0,0 0,35.14 0,35.14 h -28.67 v -35.14 c 0,0 -39.49,0 -39.49,0 v 39.49 c 0,0 35.14,0 35.14,0 V 5067 h -36.5 c 0,0 1.35,157.44 1.35,157.44 l 4.35,-0.04 -1.31,-153.05 z m 32.11,-38.57 h -30.79 v -30.79 h 30.79 z m 33.03,4.35 v 29.86 h -28.67 v -29.86 z m 4.35,29.86 v -29.86 h 105.45 c -19.66,8.23 -39.5,17.09 -56.04,29.86 z m -33.03,4.36 h 28.67 v 50.46 c -10.79,15.88 -20.93,36.43 -28.67,57.86 z"
         id="path11" />
    </g>
  </g>
</svg>
