<svg id="submit_button" data-name="submit button" xmlns="http://www.w3.org/2000/svg" viewBox="705.86 481.68 207.91 63.91">
  <defs>
    <style>
      .cls-1, .cls-2 {
        stroke-linecap: square;
      }

      .cls-1, .cls-2, .cls-3 {
        fill: none;
        stroke: #dec077;
        stroke-miterlimit: 10;
      }

      .cls-1, .cls-3 {
        stroke-width: .65px;
      }

      .cls-2 {
        stroke-width: 1.31px;
      }

      .cls-4 {
        fill: #dec078;
      }
    </style>
  </defs>
  <g>
    <path class="cls-4" d="M748.88,527.25c.7,2.55,2.95,5.15,6.5,5.15s6-2.55,6-7.45c0-2.7-.8-4.55-2.3-6.4-2.05-2.5-5.7-5.3-7.9-7.95-2-2.35-3.1-4.9-3.1-7.95,0-5.5,3.65-9.6,9.8-9.6,3.8,0,5.5,1.55,7.5,4.35l-1.55,1.2c-1.35-2.15-3.05-3.75-5.7-3.75-3.2,0-5.5,2.35-5.5,6.8,0,2.4.65,4.3,2.45,6.2,1.45,1.5,6.05,5.65,7.65,7.35,2.1,2.35,3.75,5.6,3.75,9,0,5.6-4.55,10-10.99,10-4.7,0-7.1-2.3-8.45-5.8l1.85-1.15Z"/>
    <path class="cls-4" d="M787.36,493.47h2.2v31.54c0,8.3-6.5,9.2-10.74,9.2-6.65,0-9.6-2.2-9.6-7.7v-33.03h5.25v32.33c0,3.75,3.1,6.7,7.25,6.7,3.75,0,5.65-2.35,5.65-6v-33.03Z"/>
    <path class="cls-4" d="M793.06,533.4v-39.93h9.9c5.9,0,9.15,4.1,9.15,10.15,0,4.9-2.4,7.95-5.6,9.1,4.05.9,7.3,4.7,7.3,10.05,0,6.7-4.95,10.64-13.29,10.64h-7.45ZM802.55,512.71c2.9,0,4.7-3.3,4.7-8.35,0-5.8-2.25-9.5-6.5-9.5h-2.5v17.84h4.3ZM800.75,532c4.75,0,7.55-3.25,7.55-9.6,0-5.6-2.05-8.25-6.25-8.25h-3.8v17.84h2.5Z"/>
    <path class="cls-4" d="M838.54,533.4v-30.29l-9.6,27.14-10.35-27.14v30.29h-2.1v-39.93h4.2l9.95,27.34,9.6-27.34h3.45v39.93h-5.15Z"/>
    <path class="cls-4" d="M847.28,533.4v-39.93h5.2v39.93h-5.2Z"/>
    <path class="cls-4" d="M862.02,533.4v-38.53h-7.3v-1.4h19.64v1.4h-7.1v38.53h-5.25Z"/>
  </g>
  <g>
    <g>
      <line class="cls-2" x1="707.46" y1="513.81" x2="738" y2="543.99"/>
      <g>
        <line class="cls-1" x1="731.84" y1="519.05" x2="709.64" y2="515.96"/>
        <line class="cls-3" x1="726.26" y1="518.27" x2="734.08" y2="540.12"/>
        <line class="cls-3" x1="726.26" y1="526.09" x2="726.26" y2="518.27"/>
        <line class="cls-3" x1="729.46" y1="535.55" x2="726.26" y2="526.09"/>
        <line class="cls-3" x1="715.83" y1="522.08" x2="726.26" y2="526.09"/>
        <line class="cls-3" x1="720.55" y1="523.9" x2="729.46" y2="535.55"/>
        <line class="cls-3" x1="720.55" y1="523.9" x2="720.49" y2="526.69"/>
      </g>
    </g>
    <g>
      <line class="cls-2" x1="707.46" y1="513.81" x2="737.65" y2="483.27"/>
      <g>
        <line class="cls-1" x1="731.78" y1="508.28" x2="709.61" y2="511.63"/>
        <line class="cls-3" x1="726.21" y1="509.12" x2="733.77" y2="487.19"/>
        <line class="cls-3" x1="726.12" y1="501.31" x2="726.21" y2="509.12"/>
        <line class="cls-3" x1="729.21" y1="491.81" x2="726.12" y2="501.31"/>
        <line class="cls-3" x1="715.74" y1="505.43" x2="726.12" y2="501.31"/>
        <line class="cls-3" x1="720.44" y1="503.57" x2="729.21" y2="491.81"/>
        <line class="cls-3" x1="720.44" y1="503.57" x2="720.34" y2="500.77"/>
      </g>
    </g>
    <line class="cls-1" x1="731.78" y1="508.28" x2="731.84" y2="519.05"/>
  </g>
  <g>
    <g>
      <line class="cls-2" x1="912.16" y1="513.81" x2="881.63" y2="543.99"/>
      <g>
        <line class="cls-1" x1="887.78" y1="519.05" x2="909.99" y2="515.96"/>
        <line class="cls-3" x1="893.36" y1="518.27" x2="885.55" y2="540.12"/>
        <line class="cls-3" x1="893.36" y1="526.09" x2="893.36" y2="518.27"/>
        <line class="cls-3" x1="890.16" y1="535.55" x2="893.36" y2="526.09"/>
        <line class="cls-3" x1="903.79" y1="522.08" x2="893.36" y2="526.09"/>
        <line class="cls-3" x1="899.07" y1="523.9" x2="890.16" y2="535.55"/>
        <line class="cls-3" x1="899.07" y1="523.9" x2="899.13" y2="526.69"/>
      </g>
    </g>
    <g>
      <line class="cls-2" x1="912.16" y1="513.81" x2="881.98" y2="483.27"/>
      <g>
        <line class="cls-1" x1="887.84" y1="508.28" x2="910.01" y2="511.63"/>
        <line class="cls-3" x1="893.42" y1="509.12" x2="885.85" y2="487.19"/>
        <line class="cls-3" x1="893.51" y1="501.31" x2="893.42" y2="509.12"/>
        <line class="cls-3" x1="890.42" y1="491.81" x2="893.51" y2="501.31"/>
        <line class="cls-3" x1="903.88" y1="505.43" x2="893.51" y2="501.31"/>
        <line class="cls-3" x1="899.19" y1="503.57" x2="890.42" y2="491.81"/>
        <line class="cls-3" x1="899.19" y1="503.57" x2="899.28" y2="500.77"/>
      </g>
    </g>
    <line class="cls-1" x1="887.84" y1="508.28" x2="887.78" y2="519.05"/>
  </g>
</svg>
